<?xml version="1.0" standalone="no"?>
<!DOCTYPE svg PUBLIC "-//W3C//DTD SVG 20010904//EN"
 "http://www.w3.org/TR/2001/REC-SVG-20010904/DTD/svg10.dtd">
<svg version="1.0" xmlns="http://www.w3.org/2000/svg"
 width="128.000000pt" height="128.000000pt" viewBox="0 0 128.000000 128.000000"
 preserveAspectRatio="xMidYMid meet">
<metadata>
Created by potrace 1.11, written by Peter Selinger 2001-2013
</metadata>
<g transform="translate(0.000000,128.000000) scale(0.100000,-0.100000)"
fill="#000000" stroke="none">
<path d="M575 1243 c-78 -45 -139 -80 -314 -178 -79 -44 -153 -89 -165 -100
-21 -20 -21 -26 -19 -325 2 -355 1 -330 12 -330 4 0 116 -61 247 -136 132 -75
255 -144 275 -154 l35 -18 105 60 c57 33 138 78 179 101 41 22 82 46 91 53 8
8 18 14 21 14 3 0 41 20 84 45 l79 45 1 320 1 320 -56 32 c-31 18 -67 38 -79
45 -13 7 -115 65 -227 128 -112 63 -205 115 -207 114 -1 0 -30 -17 -63 -36z"/>
</g>
</svg>
